<svg width="33" height="32" viewBox="0 0 33 32" fill="none" xmlns="http://www.w3.org/2000/svg">
<path fill-rule="evenodd" clip-rule="evenodd" d="M8.69651 8.30271C9.08247 7.91218 9.70824 7.91218 10.0942 8.30271L16.3039 14.5858L22.5135 8.30271C22.8995 7.91218 23.5252 7.91218 23.9112 8.30271C24.2972 8.69323 24.2972 9.32639 23.9112 9.71692L17.7015 16L23.9112 22.2831C24.2972 22.6736 24.2972 23.3068 23.9112 23.6973C23.5252 24.0878 22.8995 24.0878 22.5135 23.6973L16.3039 17.4142L10.0942 23.6973C9.70824 24.0878 9.08247 24.0878 8.69651 23.6973C8.31055 23.3068 8.31055 22.6736 8.69651 22.2831L14.9062 16L8.69651 9.71692C8.31055 9.3264 8.31055 8.69323 8.69651 8.30271Z" fill="#808080"/>
</svg>
