<svg width="24" height="24" viewBox="0 0 24 24" fill="none" xmlns="http://www.w3.org/2000/svg">
<path fill-rule="evenodd" clip-rule="evenodd" d="M4 5.25C3.58579 5.25 3.25 5.58579 3.25 6L3.25 8C3.25 8.41421 3.58579 8.75 4 8.75C4.41421 8.75 4.75 8.41421 4.75 8V6.75L15.25 6.75V8C15.25 8.41421 15.5858 8.75 16 8.75C16.4142 8.75 16.75 8.41421 16.75 8V6C16.75 5.80109 16.671 5.61032 16.5303 5.46967C16.3897 5.32902 16.1989 5.25 16 5.25L4 5.25Z" fill="#969696"/>
<path fill-rule="evenodd" clip-rule="evenodd" d="M7.25 18C7.25 18.4142 7.58579 18.75 8 18.75H12C12.4142 18.75 12.75 18.4142 12.75 18C12.75 17.5858 12.4142 17.25 12 17.25H10.75L10.75 6C10.75 5.58579 10.4142 5.25 10 5.25C9.58579 5.25 9.25 5.58579 9.25 6L9.25 17.25H8C7.58579 17.25 7.25 17.5858 7.25 18Z" fill="#969696"/>
<path fill-rule="evenodd" clip-rule="evenodd" d="M14 11.25C13.5858 11.25 13.25 11.5858 13.25 12V13.5C13.25 13.9142 13.5858 14.25 14 14.25C14.4142 14.25 14.75 13.9142 14.75 13.5V12.75H19.25V13.5C19.25 13.9142 19.5858 14.25 20 14.25C20.4142 14.25 20.75 13.9142 20.75 13.5V12C20.75 11.8011 20.671 11.6103 20.5303 11.4697C20.3897 11.329 20.1989 11.25 20 11.25H14Z" fill="#969696"/>
<path fill-rule="evenodd" clip-rule="evenodd" d="M14.75 18C14.75 18.4142 15.0858 18.75 15.5 18.75H18.5C18.9142 18.75 19.25 18.4142 19.25 18C19.25 17.5858 18.9142 17.25 18.5 17.25H17.75V12C17.75 11.5858 17.4142 11.25 17 11.25C16.5858 11.25 16.25 11.5858 16.25 12V17.25H15.5C15.0858 17.25 14.75 17.5858 14.75 18Z" fill="#969696"/>
</svg>
