<svg width="33" height="32" viewBox="0 0 33 32" fill="none" xmlns="http://www.w3.org/2000/svg">
<path fill-rule="evenodd" clip-rule="evenodd" d="M19.4665 11C20.449 11 21.2455 11.8059 21.2455 12.8L21.2455 25.8667C21.2455 26.8608 20.449 27.6667 19.4665 27.6667L6.55255 27.6667C5.57006 27.6667 4.77359 26.8608 4.77359 25.8667L4.77359 12.8C4.77359 11.8059 5.57006 11 6.55255 11L19.4665 11ZM19.2689 13L6.75021 13L6.75021 25.6667L19.2689 25.6667L19.2689 13Z" fill="#808080"/>
<path fill-rule="evenodd" clip-rule="evenodd" d="M26.0553 4.33333C27.0378 4.33333 27.8342 5.13922 27.8342 6.13333L27.8342 19.2C27.8342 20.1941 27.0378 21 26.0553 21L20.2572 21C19.7113 21 19.2688 20.5523 19.2688 20C19.2688 19.4477 19.7113 19 20.2572 19L25.8576 19L25.8576 6.33333L13.339 6.33333L13.339 12C13.339 12.5523 12.8965 13 12.3506 13C11.8048 13 11.3623 12.5523 11.3623 12L11.3623 6.13333C11.3623 5.13921 12.1588 4.33333 13.1413 4.33333L26.0553 4.33333Z" fill="#808080"/>
</svg>
