<svg width="224" height="57" viewBox="0 0 224 57" fill="none" xmlns="http://www.w3.org/2000/svg">
<path d="M224 19.8368L215.435 40.3614H212.445L215.283 33.5705L209.785 19.8368H213.003L216.93 30.4792L221.01 19.8368H224Z" fill="#EFEFFF"/>
<path d="M195.275 26.8049C195.275 25.369 195.562 24.1105 196.137 23.0294C196.728 21.9313 197.539 21.0867 198.569 20.4955C199.6 19.9042 200.782 19.6086 202.117 19.6086C203.806 19.6086 205.2 20.014 206.298 20.8249C207.413 21.6188 208.164 22.7591 208.553 24.2456H205.436C205.183 23.553 204.777 23.0125 204.22 22.6239C203.662 22.2354 202.961 22.0411 202.117 22.0411C200.934 22.0411 199.988 22.4635 199.279 23.3081C198.586 24.1358 198.24 25.3014 198.24 26.8049C198.24 28.3083 198.586 29.4824 199.279 30.327C199.988 31.1716 200.934 31.594 202.117 31.594C203.789 31.594 204.896 30.8591 205.436 29.3895H208.553C208.148 30.8085 207.387 31.9403 206.272 32.7849C205.157 33.6126 203.772 34.0265 202.117 34.0265C200.782 34.0265 199.6 33.7309 198.569 33.1396C197.539 32.5315 196.728 31.6869 196.137 30.6057C195.562 29.5077 195.275 28.2408 195.275 26.8049Z" fill="#EFEFFF"/>
<path d="M186.827 19.6086C187.925 19.6086 188.905 19.8366 189.766 20.2927C190.645 20.7488 191.329 21.4246 191.819 22.3199C192.309 23.2152 192.554 24.2963 192.554 25.5633V33.7985H189.69V25.994C189.69 24.744 189.378 23.7895 188.753 23.1307C188.128 22.455 187.275 22.1172 186.194 22.1172C185.112 22.1172 184.251 22.455 183.609 23.1307C182.984 23.7895 182.671 24.744 182.671 25.994V33.7985H179.783V19.8366H182.671V21.433C183.144 20.8586 183.744 20.411 184.47 20.09C185.214 19.7691 185.999 19.6086 186.827 19.6086Z" fill="#EFEFFF"/>
<path d="M176.94 26.4755C176.94 26.9991 176.906 27.4721 176.839 27.8945H166.171C166.255 29.0094 166.669 29.9047 167.412 30.5804C168.156 31.2561 169.068 31.594 170.149 31.594C171.703 31.594 172.801 30.9436 173.443 29.6429H176.56C176.137 30.9267 175.369 31.9825 174.254 32.8102C173.156 33.6211 171.788 34.0265 170.149 34.0265C168.814 34.0265 167.615 33.7309 166.551 33.1396C165.504 32.5315 164.676 31.6869 164.068 30.6057C163.476 29.5077 163.181 28.2408 163.181 26.8049C163.181 25.369 163.468 24.1105 164.042 23.0294C164.634 21.9313 165.453 21.0867 166.5 20.4955C167.564 19.9042 168.781 19.6086 170.149 19.6086C171.467 19.6086 172.641 19.8958 173.671 20.4701C174.702 21.0445 175.504 21.8553 176.078 22.9027C176.653 23.9331 176.94 25.1241 176.94 26.4755ZM173.925 25.5633C173.908 24.499 173.528 23.6459 172.784 23.004C172.041 22.3621 171.12 22.0411 170.022 22.0411C169.026 22.0411 168.173 22.3621 167.463 23.004C166.754 23.6291 166.331 24.4821 166.196 25.5633H173.925Z" fill="#EFEFFF"/>
<path d="M152.596 19.6086C153.677 19.6086 154.631 19.8282 155.459 20.2674C156.304 20.6897 156.963 21.2218 157.436 21.8638V19.8366H160.35V34.0265C160.35 35.3104 160.079 36.4506 159.539 37.4473C158.998 38.4608 158.213 39.2548 157.182 39.8292C156.169 40.4035 154.952 40.6907 153.533 40.6907C151.641 40.6907 150.07 40.243 148.82 39.3477C147.57 38.4693 146.861 37.2699 146.692 35.7496H149.555C149.775 36.476 150.239 37.0588 150.949 37.498C151.675 37.9541 152.537 38.1821 153.533 38.1821C154.699 38.1821 155.636 37.8274 156.346 37.1179C157.072 36.4084 157.436 35.3779 157.436 34.0265V31.6953C156.946 32.3541 156.278 32.9116 155.434 33.3677C154.606 33.8069 153.66 34.0265 152.596 34.0265C151.38 34.0265 150.265 33.7224 149.251 33.1143C148.254 32.4893 147.46 31.6278 146.869 30.5297C146.295 29.4148 146.008 28.1563 146.008 26.7542C146.008 25.3521 146.295 24.1105 146.869 23.0294C147.46 21.9482 148.254 21.112 149.251 20.5208C150.265 19.9127 151.38 19.6086 152.596 19.6086ZM157.436 26.8049C157.436 25.842 157.233 25.0058 156.827 24.2963C156.439 23.5868 155.924 23.0463 155.282 22.6746C154.64 22.303 153.947 22.1172 153.204 22.1172C152.461 22.1172 151.768 22.303 151.126 22.6746C150.484 23.0294 149.961 23.5615 149.555 24.271C149.167 24.9636 148.972 25.7913 148.972 26.7542C148.972 27.7171 149.167 28.5617 149.555 29.2881C149.961 30.0145 150.484 30.572 151.126 30.9605C151.785 31.3321 152.478 31.5179 153.204 31.5179C153.947 31.5179 154.64 31.3321 155.282 30.9605C155.924 30.5888 156.439 30.0483 156.827 29.3388C157.233 28.6124 157.436 27.7678 157.436 26.8049Z" fill="#EFEFFF"/>
<path d="M128.835 26.7542C128.835 25.3521 129.122 24.1105 129.696 23.0294C130.287 21.9483 131.081 21.1121 132.078 20.5208C133.092 19.9127 134.206 19.6086 135.423 19.6086C136.521 19.6086 137.475 19.8282 138.286 20.2674C139.114 20.6897 139.773 21.2219 140.262 21.8638V19.8367H143.176V33.7985H140.262V31.7207C139.773 32.3795 139.105 32.9285 138.261 33.3677C137.416 33.8069 136.453 34.0265 135.372 34.0265C134.173 34.0265 133.075 33.7225 132.078 33.1143C131.081 32.4893 130.287 31.6278 129.696 30.5298C129.122 29.4148 128.835 28.1563 128.835 26.7542ZM140.262 26.8049C140.262 25.842 140.06 25.0058 139.654 24.2963C139.266 23.5868 138.751 23.0463 138.109 22.6746C137.467 22.303 136.774 22.1172 136.031 22.1172C135.288 22.1172 134.595 22.303 133.953 22.6746C133.311 23.0294 132.787 23.5615 132.382 24.271C131.993 24.9636 131.799 25.7913 131.799 26.7542C131.799 27.7171 131.993 28.5618 132.382 29.2881C132.787 30.0145 133.311 30.572 133.953 30.9605C134.612 31.3322 135.304 31.518 136.031 31.518C136.774 31.518 137.467 31.3322 138.109 30.9605C138.751 30.5889 139.266 30.0483 139.654 29.3388C140.06 28.6124 140.262 27.7678 140.262 26.8049Z" fill="#EFEFFF"/>
<path d="M88.2789 31.2141L92.2318 19.8369H95.2978L89.9766 33.7987H86.5305L81.2346 19.8369H84.326L88.2789 31.2141Z" fill="#EFEFFF"/>
<path d="M80.039 26.4753C80.039 26.999 80.0052 27.472 79.9376 27.8943H69.2699C69.3544 29.0092 69.7682 29.9045 70.5115 30.5802C71.2548 31.2559 72.167 31.5938 73.2481 31.5938C74.8023 31.5938 75.9003 30.9434 76.5422 29.6427H79.6589C79.2366 30.9265 78.468 31.9823 77.3531 32.81C76.255 33.6209 74.8867 34.0263 73.2481 34.0263C71.9136 34.0263 70.7142 33.7307 69.65 33.1395C68.6026 32.5313 67.7749 31.6867 67.1668 30.6055C66.5755 29.5075 66.2799 28.2406 66.2799 26.8047C66.2799 25.3688 66.5671 24.1103 67.1414 23.0292C67.7327 21.9311 68.552 21.0865 69.5993 20.4953C70.6635 19.904 71.8798 19.6084 73.2481 19.6084C74.5658 19.6084 75.7398 19.8956 76.7703 20.4699C77.8007 21.0443 78.6031 21.8551 79.1775 22.9025C79.7518 23.9329 80.039 25.1239 80.039 26.4753ZM77.0237 25.5631C77.0068 24.4988 76.6267 23.6458 75.8834 23.0038C75.1401 22.3619 74.2195 22.0409 73.1214 22.0409C72.1248 22.0409 71.2717 22.3619 70.5622 23.0038C69.8527 23.6289 69.4304 24.4819 69.2952 25.5631H77.0237Z" fill="#EFEFFF"/>
<path d="M51.0862 26.8047C51.0862 25.3688 51.3734 24.1103 51.9478 23.0292C52.539 21.9311 53.3499 21.0865 54.3803 20.4953C55.4108 19.904 56.5933 19.6084 57.9278 19.6084C59.617 19.6084 61.0107 20.0138 62.1087 20.8247C63.2236 21.6186 63.9754 22.7589 64.3639 24.2454H61.2472C60.9938 23.5528 60.5884 23.0123 60.0309 22.6237C59.4735 22.2352 58.7724 22.0409 57.9278 22.0409C56.7453 22.0409 55.7993 22.4633 55.0898 23.3079C54.3972 24.1356 54.0509 25.3012 54.0509 26.8047C54.0509 28.3081 54.3972 29.4822 55.0898 30.3268C55.7993 31.1715 56.7453 31.5938 57.9278 31.5938C59.6002 31.5938 60.7066 30.8589 61.2472 29.3893H64.3639C63.9585 30.8083 63.1983 31.9401 62.0834 32.7847C60.9685 33.6125 59.5833 34.0263 57.9278 34.0263C56.5933 34.0263 55.4108 33.7307 54.3803 33.1395C53.3499 32.5313 52.539 31.6867 51.9478 30.6055C51.3734 29.5075 51.0862 28.2406 51.0862 26.8047Z" fill="#EFEFFF"/>
<path d="M45.213 21.8636C45.6353 21.1541 46.1928 20.6051 46.8854 20.2165C47.5949 19.8111 48.4311 19.6084 49.394 19.6084V22.5984H48.6591C47.5273 22.5984 46.6658 22.8856 46.0745 23.4599C45.5002 24.0343 45.213 25.031 45.213 26.4499V33.7983H42.3244V19.8364H45.213V21.8636Z" fill="#EFEFFF"/>
<path d="M24.1882 26.754C24.1882 25.3519 24.4754 24.1103 25.0497 23.0292C25.641 21.948 26.4349 21.1118 27.4316 20.5206C28.4452 19.9125 29.5601 19.6084 30.7763 19.6084C31.8744 19.6084 32.8288 19.828 33.6397 20.2672C34.4674 20.6895 35.1262 21.2216 35.6161 21.8636V19.8364H38.5301V33.7983H35.6161V31.7205C35.1262 32.3793 34.459 32.9283 33.6143 33.3675C32.7697 33.8067 31.8068 34.0263 30.7257 34.0263C29.5263 34.0263 28.4283 33.7223 27.4316 33.1141C26.4349 32.4891 25.641 31.6276 25.0497 30.5295C24.4754 29.4146 24.1882 28.1561 24.1882 26.754ZM35.6161 26.8047C35.6161 25.8418 35.4134 25.0056 35.008 24.2961C34.6194 23.5866 34.1042 23.0461 33.4623 22.6744C32.8204 22.3028 32.1278 22.117 31.3845 22.117C30.6412 22.117 29.9486 22.3028 29.3067 22.6744C28.6648 23.0292 28.1411 23.5613 27.7357 24.2708C27.3471 24.9634 27.1529 25.7911 27.1529 26.754C27.1529 27.7169 27.3471 28.5615 27.7357 29.2879C28.1411 30.0143 28.6648 30.5718 29.3067 30.9603C29.9655 31.3319 30.6581 31.5178 31.3845 31.5178C32.1278 31.5178 32.8204 31.3319 33.4623 30.9603C34.1042 30.5887 34.6194 30.0481 35.008 29.3386C35.4134 28.6122 35.6161 27.7676 35.6161 26.8047Z" fill="#EFEFFF"/>
<path d="M19.0934 22.193V29.9215C19.0934 30.4451 19.2116 30.8252 19.4481 31.0617C19.7015 31.2813 20.1238 31.3911 20.7151 31.3911H22.4888V33.7983H20.2083C18.9076 33.7983 17.9109 33.4943 17.2183 32.8861C16.5257 32.278 16.1794 31.2898 16.1794 29.9215V22.193H14.5323V19.8365H16.1794V16.3651H19.0934V19.8365H22.4888V22.193H19.0934Z" fill="#EFEFFF"/>
<path d="M6.23341 33.9759C5.05092 33.9759 3.98668 33.7732 3.04069 33.3677C2.0947 32.9454 1.35142 32.3542 0.81085 31.594C0.270283 30.8338 0 29.947 0 28.9334H3.09137C3.15894 29.6936 3.45456 30.3186 3.97823 30.8085C4.5188 31.2984 5.27053 31.5433 6.23341 31.5433C7.23008 31.5433 8.00715 31.3068 8.56461 30.8338C9.12207 30.3439 9.40079 29.7189 9.40079 28.9587C9.40079 28.3675 9.22342 27.886 8.86867 27.5144C8.53082 27.1428 8.10006 26.8556 7.57638 26.6529C7.0696 26.4502 6.36011 26.2306 5.4479 25.9941C4.2992 25.69 3.36165 25.3859 2.63526 25.0819C1.92577 24.7609 1.31763 24.271 0.81085 23.6122C0.304069 22.9534 0.0506781 22.075 0.0506781 20.9769C0.0506781 19.9634 0.304069 19.0765 0.81085 18.3163C1.31763 17.5562 2.02713 16.9734 2.93933 16.5679C3.85154 16.1625 4.90733 15.9598 6.10672 15.9598C7.81288 15.9598 9.20653 16.3906 10.2877 17.2521C11.3857 18.0967 11.9938 19.2623 12.1121 20.7489H8.91935C8.86867 20.107 8.5646 19.5579 8.00715 19.1018C7.44969 18.6457 6.71485 18.4177 5.80265 18.4177C4.9749 18.4177 4.2992 18.6288 3.77552 19.0512C3.25185 19.4735 2.99001 20.0816 2.99001 20.8756C2.99001 21.4161 3.15049 21.8638 3.47145 22.2185C3.80931 22.5564 4.23162 22.8267 4.73841 23.0294C5.24519 23.2321 5.93779 23.4517 6.81621 23.6882C7.98181 24.0092 8.9278 24.3301 9.65419 24.6511C10.3975 24.9721 11.0225 25.4704 11.5293 26.1461C12.0529 26.8049 12.3148 27.6918 12.3148 28.8067C12.3148 29.702 12.0698 30.5466 11.58 31.3406C11.107 32.1346 10.4059 32.7765 9.47681 33.2664C8.56461 33.7394 7.48347 33.9759 6.23341 33.9759Z" fill="#EFEFFF"/>
<path d="M109.149 31.8261L109.149 0.810255L124.886 16.1028L109.149 31.8261Z" fill="#F8961D"/>
<path d="M106.702 13.2805L93.8428 0L106.921 0.0350931L106.702 13.2805Z" fill="#1768B7"/>
<path d="M106.346 21.4875V31.3953L101.173 26.5102L106.346 21.4875Z" fill="#E01F27"/>
<path d="M100.31 29.6722V39.58L105.484 34.6949L100.31 29.6722Z" fill="#CA2127"/>
<path d="M126.18 3.39491V13.3027L121.006 8.41762L126.18 3.39491Z" fill="#49B050"/>
<path d="M135.976 2.72978L128.988 9.75977L128.763 2.65096L135.976 2.72978Z" fill="#1E9680"/>
<path d="M209.7 53.6245V47.4194H212.087C212.768 47.4194 213.317 47.5428 213.734 47.7896C214.16 48.028 214.373 48.428 214.373 48.9898C214.373 49.3303 214.279 49.6154 214.092 49.8453C213.913 50.0666 213.662 50.224 213.339 50.3177V50.356C213.688 50.4411 213.99 50.5985 214.245 50.8284C214.509 51.0582 214.641 51.3987 214.641 51.8498C214.641 52.4626 214.411 52.9138 213.951 53.2032C213.492 53.4841 212.904 53.6245 212.189 53.6245H209.7ZM210.734 50.024H211.909C212.428 50.024 212.798 49.9431 213.019 49.7814C213.241 49.6112 213.351 49.3814 213.351 49.092C213.351 48.8026 213.241 48.577 213.019 48.4153C212.807 48.2535 212.462 48.1727 211.985 48.1727H210.734V50.024ZM210.734 52.8712H212.075C212.585 52.8712 212.964 52.7776 213.211 52.5903C213.466 52.3945 213.594 52.1264 213.594 51.7859C213.594 51.471 213.462 51.2242 213.198 51.0454C212.934 50.8667 212.538 50.7773 212.011 50.7773H210.734V52.8712Z" fill="#808080"/>
<path d="M205.193 53.7775C204.691 53.7775 204.218 53.6498 203.776 53.3945C203.342 53.1391 202.988 52.7689 202.716 52.2837C202.452 51.7985 202.32 51.2155 202.32 50.5345C202.32 49.8365 202.452 49.245 202.716 48.7598C202.988 48.2746 203.342 47.9044 203.776 47.649C204.218 47.3937 204.691 47.266 205.193 47.266C205.704 47.266 206.176 47.3937 206.61 47.649C207.044 47.9044 207.393 48.2746 207.657 48.7598C207.929 49.245 208.066 49.8365 208.066 50.5345C208.066 51.2155 207.929 51.7985 207.657 52.2837C207.393 52.7689 207.044 53.1391 206.61 53.3945C206.176 53.6498 205.704 53.7775 205.193 53.7775ZM205.193 52.9093C205.729 52.9093 206.159 52.6923 206.482 52.2582C206.814 51.8156 206.98 51.241 206.98 50.5345C206.98 49.8195 206.814 49.2407 206.482 48.7981C206.159 48.3555 205.729 48.1342 205.193 48.1342C204.665 48.1342 204.235 48.3555 203.903 48.7981C203.571 49.2407 203.405 49.8195 203.405 50.5345C203.405 51.241 203.571 51.8156 203.903 52.2582C204.235 52.6923 204.665 52.9093 205.193 52.9093Z" fill="#808080"/>
<path d="M198.448 53.6245V48.2748H196.367V47.4194H201.576V48.2748H199.495V53.6245H198.448Z" fill="#808080"/>
<path d="M189.862 53.6246V47.4194H190.884V49.9985C190.884 50.3305 190.871 50.6965 190.845 51.0965C190.828 51.4881 190.807 51.8839 190.782 52.2839H190.833C190.952 52.0882 191.088 51.8669 191.241 51.62C191.403 51.3647 191.539 51.1434 191.65 50.9561L193.999 47.4194H194.982V53.6246H193.961V51.0455C193.961 50.7135 193.969 50.3475 193.986 49.9474C194.012 49.5474 194.037 49.1473 194.063 48.7473H194.012C193.901 48.9345 193.765 49.1558 193.603 49.4112C193.442 49.6666 193.305 49.8879 193.195 50.0751L190.833 53.6246H189.862ZM192.454 46.3086C191.978 46.3086 191.595 46.215 191.305 46.0277C191.024 45.8405 190.816 45.5979 190.68 45.3C190.543 45.0021 190.467 44.6871 190.45 44.3552H191.318C191.335 44.7212 191.424 45.0361 191.586 45.3C191.748 45.5639 192.037 45.6958 192.454 45.6958C192.88 45.6958 193.173 45.5639 193.335 45.3C193.497 45.0361 193.582 44.7212 193.591 44.3552H194.459C194.442 44.6871 194.365 45.0021 194.229 45.3C194.093 45.5979 193.88 45.8405 193.591 46.0277C193.31 46.215 192.931 46.3086 192.454 46.3086Z" fill="#808080"/>
<path d="M184.859 53.7775C184.339 53.7775 183.905 53.6243 183.556 53.3179C183.216 53.003 183.046 52.5688 183.046 52.0156C183.046 51.3346 183.348 50.8154 183.952 50.4579C184.565 50.0919 185.531 49.8365 186.85 49.6918C186.85 49.428 186.812 49.1769 186.735 48.9386C186.667 48.7002 186.54 48.5087 186.352 48.364C186.174 48.2108 185.914 48.1342 185.574 48.1342C185.216 48.1342 184.88 48.2023 184.565 48.3385C184.25 48.4747 183.969 48.6279 183.722 48.7981L183.314 48.0703C183.603 47.8831 183.956 47.7043 184.373 47.5341C184.799 47.3554 185.259 47.266 185.752 47.266C186.51 47.266 187.059 47.5001 187.399 47.9682C187.74 48.4278 187.91 49.0449 187.91 49.8195V53.6243H187.042L186.953 52.8838H186.914C186.625 53.1221 186.306 53.3307 185.957 53.5094C185.616 53.6882 185.25 53.7775 184.859 53.7775ZM185.165 52.9349C185.463 52.9349 185.744 52.8625 186.008 52.7178C186.272 52.5731 186.552 52.3688 186.85 52.105V50.3813C185.82 50.509 185.097 50.7005 184.68 50.9559C184.271 51.2112 184.067 51.5389 184.067 51.939C184.067 52.288 184.173 52.5433 184.386 52.705C184.599 52.8582 184.859 52.9349 185.165 52.9349Z" fill="#808080"/>
<path d="M180.182 53.7775C179.637 53.7775 179.144 53.6498 178.701 53.3945C178.258 53.1391 177.909 52.7689 177.654 52.2837C177.399 51.7985 177.271 51.2155 177.271 50.5345C177.271 49.8365 177.407 49.245 177.68 48.7598C177.96 48.2746 178.326 47.9044 178.778 47.649C179.237 47.3937 179.731 47.266 180.259 47.266C180.667 47.266 181.016 47.3383 181.306 47.483C181.603 47.6277 181.859 47.798 182.072 47.9937L181.535 48.6832C181.357 48.5215 181.165 48.3895 180.961 48.2874C180.765 48.1853 180.544 48.1342 180.297 48.1342C179.922 48.1342 179.586 48.2363 179.288 48.4406C178.999 48.6364 178.769 48.9173 178.599 49.2833C178.437 49.6408 178.356 50.0579 178.356 50.5345C178.356 51.241 178.531 51.8156 178.88 52.2582C179.237 52.6923 179.701 52.9093 180.271 52.9093C180.561 52.9093 180.829 52.8497 181.076 52.7306C181.323 52.6029 181.54 52.4539 181.727 52.2837L182.187 52.9859C181.906 53.2328 181.595 53.4285 181.254 53.5732C180.914 53.7094 180.556 53.7775 180.182 53.7775Z" fill="#808080"/>
<path d="M171.356 53.7775C170.803 53.7775 170.3 53.6498 169.849 53.3945C169.398 53.1306 169.041 52.7561 168.777 52.2709C168.513 51.7858 168.381 51.207 168.381 50.5345C168.381 49.8536 168.513 49.2705 168.777 48.7853C169.049 48.3002 169.398 47.9256 169.824 47.6618C170.249 47.3979 170.696 47.266 171.164 47.266C171.956 47.266 172.565 47.5298 172.99 48.0576C173.424 48.5853 173.641 49.2918 173.641 50.177C173.641 50.2877 173.637 50.3983 173.628 50.509C173.628 50.6111 173.62 50.7005 173.603 50.7771H169.415C169.458 51.4325 169.662 51.956 170.028 52.3475C170.402 52.7391 170.888 52.9349 171.483 52.9349C171.781 52.9349 172.054 52.8923 172.301 52.8072C172.556 52.7135 172.799 52.5944 173.028 52.4497L173.399 53.1391C173.135 53.3094 172.833 53.4583 172.492 53.586C172.16 53.7137 171.781 53.7775 171.356 53.7775ZM169.402 50.0238H172.722C172.722 49.3939 172.586 48.9173 172.313 48.5938C172.05 48.2619 171.675 48.0959 171.19 48.0959C170.756 48.0959 170.364 48.2661 170.015 48.6066C169.675 48.9386 169.47 49.411 169.402 50.0238Z" fill="#808080"/>
<path d="M161.621 53.6245V47.4194H162.643V49.9985C162.643 50.3304 162.63 50.6964 162.604 51.0965C162.587 51.488 162.566 51.8838 162.541 52.2839H162.592C162.711 52.0881 162.847 51.8668 163 51.62C163.162 51.3646 163.298 51.1433 163.409 50.956L165.758 47.4194H166.741V53.6245H165.72V51.0454C165.72 50.7135 165.728 50.3475 165.745 49.9474C165.771 49.5473 165.796 49.1473 165.822 48.7472H165.771C165.66 48.9345 165.524 49.1558 165.362 49.4111C165.2 49.6665 165.064 49.8878 164.954 50.0751L162.592 53.6245H161.621Z" fill="#808080"/>
<path d="M154.452 53.6245V47.4194H155.499V49.9346H158.487V47.4194H159.533V53.6245H158.487V50.8667H155.499V53.6245H154.452Z" fill="#808080"/>
<path d="M150.633 53.7775C150.08 53.7775 149.578 53.6498 149.127 53.3945C148.675 53.1306 148.318 52.7561 148.054 52.2709C147.79 51.7858 147.658 51.207 147.658 50.5345C147.658 49.8536 147.79 49.2705 148.054 48.7853C148.326 48.3002 148.675 47.9256 149.101 47.6618C149.527 47.3979 149.973 47.266 150.442 47.266C151.233 47.266 151.842 47.5298 152.267 48.0576C152.702 48.5853 152.919 49.2918 152.919 50.177C152.919 50.2877 152.914 50.3983 152.906 50.509C152.906 50.6111 152.897 50.7005 152.88 50.7771H148.692C148.735 51.4325 148.939 51.956 149.305 52.3475C149.68 52.7391 150.165 52.9349 150.761 52.9349C151.059 52.9349 151.331 52.8923 151.578 52.8072C151.833 52.7135 152.076 52.5944 152.306 52.4497L152.676 53.1391C152.412 53.3094 152.11 53.4583 151.769 53.586C151.438 53.7137 151.059 53.7775 150.633 53.7775ZM148.68 50.0238H151.999C151.999 49.3939 151.863 48.9173 151.591 48.5938C151.327 48.2619 150.952 48.0959 150.467 48.0959C150.033 48.0959 149.642 48.2661 149.293 48.6066C148.952 48.9386 148.748 49.411 148.68 50.0238Z" fill="#808080"/>
<path d="M138.758 53.6243L140.712 50.3685L140.214 49.1301C140.078 48.7726 139.937 48.5428 139.793 48.4406C139.648 48.3385 139.49 48.2874 139.32 48.2874C139.235 48.2874 139.167 48.2959 139.116 48.3129L138.924 47.3298C139.035 47.2873 139.158 47.266 139.295 47.266C139.635 47.266 139.937 47.3554 140.201 47.5341C140.474 47.7128 140.716 48.0661 140.929 48.5938L141.491 49.9727H142.474V47.4192H143.406V49.9727H144.389L144.951 48.5938C145.172 48.0661 145.415 47.7128 145.679 47.5341C145.942 47.3554 146.245 47.266 146.585 47.266C146.721 47.266 146.84 47.2873 146.943 47.3298L146.764 48.3129C146.713 48.2959 146.645 48.2874 146.559 48.2874C146.398 48.2874 146.24 48.3385 146.087 48.4406C145.942 48.5428 145.798 48.7726 145.653 49.1301L145.168 50.3685L147.121 53.6243H145.985L144.427 50.8282H143.406V53.6243H142.474V50.8282H141.452L139.895 53.6243H138.758Z" fill="#808080"/>
<path d="M132.42 53.6245V47.4194H133.441V49.9985C133.441 50.3304 133.429 50.6964 133.403 51.0965C133.386 51.488 133.365 51.8838 133.339 52.2839H133.39C133.51 52.0881 133.646 51.8668 133.799 51.62C133.961 51.3646 134.097 51.1433 134.208 50.956L136.557 47.4194H137.54V53.6245H136.518V51.0454C136.518 50.7135 136.527 50.3475 136.544 49.9474C136.57 49.5473 136.595 49.1473 136.621 48.7472H136.57C136.459 48.9345 136.323 49.1558 136.161 49.4111C135.999 49.6665 135.863 49.8878 135.752 50.0751L133.39 53.6245H132.42Z" fill="#808080"/>
<path d="M125.936 53.6245V47.4194H128.324C129.005 47.4194 129.554 47.5428 129.971 47.7896C130.397 48.028 130.609 48.428 130.609 48.9898C130.609 49.3303 130.516 49.6154 130.328 49.8453C130.15 50.0666 129.899 50.224 129.575 50.3177V50.356C129.924 50.4411 130.226 50.5985 130.482 50.8284C130.746 51.0582 130.877 51.3987 130.877 51.8498C130.877 52.4626 130.648 52.9138 130.188 53.2032C129.728 53.4841 129.141 53.6245 128.426 53.6245H125.936ZM126.971 50.024H128.145C128.664 50.024 129.035 49.9431 129.256 49.7814C129.477 49.6112 129.588 49.3814 129.588 49.092C129.588 48.8026 129.477 48.577 129.256 48.4153C129.043 48.2535 128.698 48.1727 128.222 48.1727H126.971V50.024ZM126.971 52.8712H128.311C128.822 52.8712 129.201 52.7776 129.448 52.5903C129.703 52.3945 129.831 52.1264 129.831 51.7859C129.831 51.471 129.699 51.2242 129.435 51.0454C129.171 50.8667 128.775 50.7773 128.247 50.7773H126.971V52.8712Z" fill="#808080"/>
<path d="M120.431 50.3687C120.363 50.9816 120.269 51.4795 120.15 51.8626C120.039 52.2456 119.911 52.5478 119.767 52.7691H122.652V48.2748H120.673L120.431 50.3687ZM119.358 53.6245V55.8206H118.452L118.337 53.433V52.7691H118.643C118.762 52.701 118.869 52.5946 118.962 52.4499C119.064 52.2967 119.162 52.0456 119.256 51.6966C119.35 51.3391 119.435 50.8284 119.511 50.1644L119.843 47.4194H123.699V52.7691H124.606V53.433L124.504 55.8206H123.597V53.6245H119.358Z" fill="#808080"/>
<path d="M114.634 53.7775C114.132 53.7775 113.659 53.6498 113.217 53.3945C112.783 53.1391 112.43 52.7689 112.157 52.2837C111.893 51.7985 111.761 51.2155 111.761 50.5345C111.761 49.8365 111.893 49.245 112.157 48.7598C112.43 48.2746 112.783 47.9044 113.217 47.649C113.659 47.3937 114.132 47.266 114.634 47.266C115.145 47.266 115.617 47.3937 116.051 47.649C116.485 47.9044 116.834 48.2746 117.098 48.7598C117.371 49.245 117.507 49.8365 117.507 50.5345C117.507 51.2155 117.371 51.7985 117.098 52.2837C116.834 52.7689 116.485 53.1391 116.051 53.3945C115.617 53.6498 115.145 53.7775 114.634 53.7775ZM114.634 52.9093C115.17 52.9093 115.6 52.6923 115.924 52.2582C116.256 51.8156 116.422 51.241 116.422 50.5345C116.422 49.8195 116.256 49.2407 115.924 48.7981C115.6 48.3555 115.17 48.1342 114.634 48.1342C114.106 48.1342 113.677 48.3555 113.345 48.7981C113.013 49.2407 112.847 49.8195 112.847 50.5345C112.847 51.241 113.013 51.8156 113.345 52.2582C113.677 52.6923 114.106 52.9093 114.634 52.9093Z" fill="#808080"/>
<path d="M105.139 56.2417V47.4192H106.007L106.097 48.1342H106.135C106.416 47.8959 106.722 47.6916 107.054 47.5213C107.395 47.3511 107.748 47.266 108.114 47.266C108.914 47.266 109.523 47.5554 109.94 48.1342C110.357 48.7045 110.565 49.4705 110.565 50.4324C110.565 51.1303 110.438 51.7304 110.182 52.2326C109.935 52.7348 109.608 53.1179 109.199 53.3817C108.799 53.6456 108.361 53.7775 107.884 53.7775C107.595 53.7775 107.305 53.7137 107.016 53.586C106.735 53.4583 106.45 53.2838 106.16 53.0625L106.186 54.1478V56.2417H105.139ZM107.705 52.8966C108.216 52.8966 108.637 52.6795 108.969 52.2454C109.31 51.8028 109.48 51.1984 109.48 50.4324C109.48 49.7514 109.352 49.2024 109.097 48.7853C108.85 48.3597 108.433 48.147 107.846 48.147C107.582 48.147 107.314 48.2193 107.041 48.364C106.777 48.5087 106.492 48.7172 106.186 48.9896V52.2454C106.467 52.4837 106.739 52.654 107.003 52.7561C107.267 52.8497 107.501 52.8966 107.705 52.8966Z" fill="#808080"/>
<path d="M98.0817 53.6245V47.4194H103.048V53.6245H102.001V48.2748H99.1287V53.6245H98.0817Z" fill="#808080"/>
<path d="M88.3064 53.6245V47.4194H89.3278V49.9985C89.3278 50.3304 89.3151 50.6964 89.2895 51.0965C89.2725 51.488 89.2512 51.8838 89.2257 52.2839H89.2768C89.3959 52.0881 89.5321 51.8668 89.6853 51.62C89.8471 51.3646 89.9832 51.1433 90.0939 50.956L92.4432 47.4194H93.4263V53.6245H92.4049V51.0454C92.4049 50.7135 92.4134 50.3475 92.4304 49.9474C92.4559 49.5473 92.4815 49.1473 92.507 48.7472H92.4559C92.3453 48.9345 92.2091 49.1558 92.0474 49.4111C91.8856 49.6665 91.7494 49.8878 91.6388 50.0751L89.2768 53.6245H88.3064Z" fill="#808080"/>
<path d="M80.7466 53.7775C80.2274 53.7775 79.7933 53.6243 79.4443 53.3179C79.1038 53.003 78.9336 52.5688 78.9336 52.0156C78.9336 51.3346 79.2358 50.8154 79.8401 50.4579C80.453 50.0919 81.4191 49.8365 82.7384 49.6918C82.7384 49.428 82.7001 49.1769 82.6235 48.9386C82.5554 48.7002 82.4277 48.5087 82.2405 48.364C82.0617 48.2108 81.8021 48.1342 81.4616 48.1342C81.1041 48.1342 80.7679 48.2023 80.453 48.3385C80.138 48.4747 79.8571 48.6279 79.6103 48.7981L79.2017 48.0703C79.4911 47.8831 79.8444 47.7043 80.2615 47.5341C80.687 47.3554 81.1467 47.266 81.6404 47.266C82.3979 47.266 82.9469 47.5001 83.2874 47.9682C83.6279 48.4278 83.7981 49.0449 83.7981 49.8195V53.6243H82.9299L82.8405 52.8838H82.8022C82.5128 53.1221 82.1936 53.3307 81.8447 53.5094C81.5042 53.6882 81.1382 53.7775 80.7466 53.7775ZM81.0531 52.9349C81.351 52.9349 81.6319 52.8625 81.8957 52.7178C82.1596 52.5731 82.4405 52.3688 82.7384 52.105V50.3813C81.7085 50.509 80.985 50.7005 80.5679 50.9559C80.1593 51.2112 79.955 51.5389 79.955 51.939C79.955 52.288 80.0614 52.5433 80.2742 52.705C80.487 52.8582 80.7466 52.9349 81.0531 52.9349Z" fill="#808080"/>
<path d="M73.0824 53.6243V47.4192H74.1294V49.9727H75.3295L75.9424 48.5938C76.1126 48.2193 76.2786 47.9384 76.4403 47.7512C76.602 47.5554 76.7765 47.4277 76.9638 47.3681C77.1511 47.3 77.3553 47.266 77.5766 47.266C77.7128 47.266 77.832 47.2873 77.9341 47.3298L77.7554 48.3129C77.7043 48.2959 77.6362 48.2874 77.5511 48.2874C77.3894 48.2874 77.2404 48.3342 77.1042 48.4278C76.968 48.5215 76.8148 48.7555 76.6446 49.1301L76.1211 50.3558L78.2278 53.6243H77.0787L75.3551 50.8282H74.1294V53.6243H73.0824Z" fill="#808080"/>
<path d="M68.5759 53.6245V48.2748H66.4948V47.4194H71.704V48.2748H69.6229V53.6245H68.5759Z" fill="#808080"/>
<path d="M62.9148 53.7775C62.4126 53.7775 61.9402 53.6498 61.4976 53.3945C61.0635 53.1391 60.7103 52.7689 60.4379 52.2837C60.174 51.7985 60.0421 51.2155 60.0421 50.5345C60.0421 49.8365 60.174 49.245 60.4379 48.7598C60.7103 48.2746 61.0635 47.9044 61.4976 47.649C61.9402 47.3937 62.4126 47.266 62.9148 47.266C63.4255 47.266 63.8979 47.3937 64.332 47.649C64.7661 47.9044 65.1151 48.2746 65.379 48.7598C65.6514 49.245 65.7876 49.8365 65.7876 50.5345C65.7876 51.2155 65.6514 51.7985 65.379 52.2837C65.1151 52.7689 64.7661 53.1391 64.332 53.3945C63.8979 53.6498 63.4255 53.7775 62.9148 53.7775ZM62.9148 52.9093C63.4511 52.9093 63.8809 52.6923 64.2044 52.2582C64.5363 51.8156 64.7023 51.241 64.7023 50.5345C64.7023 49.8195 64.5363 49.2407 64.2044 48.7981C63.8809 48.3555 63.4511 48.1342 62.9148 48.1342C62.3871 48.1342 61.9572 48.3555 61.6253 48.7981C61.2933 49.2407 61.1273 49.8195 61.1273 50.5345C61.1273 51.241 61.2933 51.8156 61.6253 52.2582C61.9572 52.6923 62.3871 52.9093 62.9148 52.9093Z" fill="#808080"/>
<path d="M54.1952 50.0626C54.1952 50.9648 54.3569 51.6671 54.6804 52.1693C55.0038 52.663 55.4805 52.9098 56.1104 52.9098C56.587 52.9098 56.9786 52.6927 57.285 52.2586C57.5999 51.816 57.7574 51.2457 57.7574 50.5478C57.7574 49.9094 57.6127 49.4029 57.3233 49.0284C57.0339 48.6454 56.6211 48.4539 56.0848 48.4539C55.7869 48.4539 55.4762 48.5347 55.1528 48.6964C54.8293 48.8582 54.5101 49.1518 54.1952 49.5774C54.1952 49.654 54.1952 49.7349 54.1952 49.82C54.1952 49.8966 54.1952 49.9775 54.1952 50.0626ZM56.1104 53.778C55.1826 53.778 54.4633 53.4375 53.9526 52.7566C53.4419 52.0756 53.1866 51.1095 53.1866 49.8583C53.1866 48.8113 53.2759 47.9644 53.4547 47.3175C53.6419 46.6706 53.9058 46.1727 54.2463 45.8237C54.5867 45.4662 54.9953 45.2023 55.472 45.0321C55.9572 44.8619 56.4934 44.7342 57.0807 44.6491C57.4297 44.598 57.6851 44.5512 57.8468 44.5086C58.0085 44.4575 58.183 44.3895 58.3703 44.3043L58.5745 45.2619C58.4128 45.3726 58.2256 45.4577 58.0128 45.5173C57.8 45.5683 57.5616 45.6152 57.2978 45.6577C56.8041 45.7343 56.3742 45.8194 56.0082 45.9131C55.6422 45.9982 55.3358 46.1386 55.0889 46.3344C54.8506 46.5217 54.6634 46.8026 54.5272 47.1771C54.391 47.5431 54.2973 48.0453 54.2463 48.6837C54.5187 48.3432 54.8378 48.0878 55.2039 47.9176C55.5784 47.7389 55.9614 47.6495 56.353 47.6495C57.085 47.6495 57.6808 47.9048 58.1404 48.4155C58.6086 48.9263 58.8427 49.637 58.8427 50.5478C58.8427 51.2032 58.7192 51.7735 58.4724 52.2586C58.2256 52.7438 57.8936 53.1183 57.4765 53.3822C57.0679 53.6461 56.6126 53.778 56.1104 53.778Z" fill="#808080"/>
<path d="M48.553 53.7775C48.0338 53.7775 47.5997 53.6243 47.2507 53.3179C46.9102 53.003 46.74 52.5688 46.74 52.0156C46.74 51.3346 47.0421 50.8154 47.6465 50.4579C48.2593 50.0919 49.2254 49.8365 50.5447 49.6918C50.5447 49.428 50.5064 49.1769 50.4298 48.9386C50.3617 48.7002 50.2341 48.5087 50.0468 48.364C49.8681 48.2108 49.6084 48.1342 49.268 48.1342C48.9105 48.1342 48.5743 48.2023 48.2593 48.3385C47.9444 48.4747 47.6635 48.6279 47.4166 48.7981L47.0081 48.0703C47.2975 47.8831 47.6507 47.7043 48.0678 47.5341C48.4934 47.3554 48.953 47.266 49.4467 47.266C50.2043 47.266 50.7533 47.5001 51.0938 47.9682C51.4342 48.4278 51.6045 49.0449 51.6045 49.8195V53.6243H50.7363L50.6469 52.8838H50.6086C50.3192 53.1221 50 53.3307 49.651 53.5094C49.3105 53.6882 48.9445 53.7775 48.553 53.7775ZM48.8594 52.9349C49.1573 52.9349 49.4382 52.8625 49.7021 52.7178C49.9659 52.5731 50.2468 52.3688 50.5447 52.105V50.3813C49.5148 50.509 48.7913 50.7005 48.3742 50.9559C47.9657 51.2112 47.7614 51.5389 47.7614 51.939C47.7614 52.288 47.8678 52.5433 48.0806 52.705C48.2934 52.8582 48.553 52.9349 48.8594 52.9349Z" fill="#808080"/>
<path d="M40.2155 56.2417V47.4192H41.0837L41.1731 48.1342H41.2114C41.4922 47.8959 41.7987 47.6916 42.1306 47.5213C42.4711 47.3511 42.8243 47.266 43.1904 47.266C43.9905 47.266 44.5991 47.5554 45.0161 48.1342C45.4332 48.7045 45.6418 49.4705 45.6418 50.4324C45.6418 51.1303 45.5141 51.7304 45.2587 52.2326C45.0119 52.7348 44.6842 53.1179 44.2756 53.3817C43.8756 53.6456 43.4372 53.7775 42.9605 53.7775C42.6711 53.7775 42.3817 53.7137 42.0923 53.586C41.8114 53.4583 41.5263 53.2838 41.2369 53.0625L41.2624 54.1478V56.2417H40.2155ZM42.7818 52.8966C43.2925 52.8966 43.7138 52.6795 44.0458 52.2454C44.3863 51.8028 44.5565 51.1984 44.5565 50.4324C44.5565 49.7514 44.4288 49.2024 44.1735 48.7853C43.9266 48.3597 43.5095 48.147 42.9222 48.147C42.6584 48.147 42.3902 48.2193 42.1179 48.364C41.854 48.5087 41.5688 48.7172 41.2624 48.9896V52.2454C41.5433 52.4837 41.8157 52.654 42.0796 52.7561C42.3434 52.8497 42.5775 52.8966 42.7818 52.8966Z" fill="#808080"/>
<path d="M36.1673 53.7775C35.7417 53.7775 35.3332 53.7222 34.9416 53.6115C34.5586 53.4924 34.1841 53.2838 33.8181 52.9859L34.2649 52.3092C34.5543 52.5476 34.848 52.7135 35.1459 52.8072C35.4523 52.8923 35.763 52.9349 36.078 52.9349C36.5035 52.9349 36.8653 52.837 37.1632 52.6412C37.4696 52.4369 37.6229 52.1645 37.6229 51.8241C37.6229 51.4751 37.4824 51.2155 37.2015 51.0452C36.9291 50.8665 36.5419 50.7771 36.0397 50.7771H35.1842V50.0238H35.8864C36.3886 50.0238 36.7632 49.9387 37.01 49.7685C37.2568 49.5897 37.3803 49.3471 37.3803 49.0407C37.3803 48.7258 37.2568 48.4917 37.01 48.3385C36.7717 48.1767 36.4652 48.0959 36.0907 48.0959C35.7332 48.0959 35.4225 48.1427 35.1587 48.2363C34.9033 48.33 34.6522 48.4661 34.4054 48.6449L33.9585 47.9554C34.2564 47.7426 34.5841 47.5767 34.9416 47.4575C35.2991 47.3298 35.6992 47.266 36.1418 47.266C36.5504 47.266 36.9249 47.3256 37.2654 47.4447C37.6058 47.5639 37.8782 47.7469 38.0825 47.9937C38.2953 48.2406 38.4017 48.5555 38.4017 48.9386C38.4017 49.2365 38.3123 49.5088 38.1336 49.7557C37.9548 50.0025 37.7037 50.1898 37.3803 50.3175V50.3685C37.7378 50.4622 38.0399 50.6324 38.2868 50.8792C38.5421 51.1176 38.6698 51.4623 38.6698 51.9134C38.6698 52.2965 38.5506 52.6284 38.3123 52.9093C38.0825 53.1817 37.7761 53.3945 37.393 53.5477C37.0185 53.7009 36.6099 53.7775 36.1673 53.7775Z" fill="#808080"/>
<path d="M29.3889 53.7775C28.8697 53.7775 28.4356 53.6243 28.0866 53.3179C27.7461 53.003 27.5759 52.5688 27.5759 52.0156C27.5759 51.3346 27.878 50.8154 28.4824 50.4579C29.0952 50.0919 30.0613 49.8365 31.3806 49.6918C31.3806 49.428 31.3423 49.1769 31.2657 48.9386C31.1976 48.7002 31.07 48.5087 30.8827 48.364C30.704 48.2108 30.4443 48.1342 30.1039 48.1342C29.7464 48.1342 29.4102 48.2023 29.0952 48.3385C28.7803 48.4747 28.4994 48.6279 28.2525 48.7981L27.844 48.0703C28.1334 47.8831 28.4866 47.7043 28.9037 47.5341C29.3293 47.3554 29.7889 47.266 30.2826 47.266C31.0402 47.266 31.5892 47.5001 31.9297 47.9682C32.2701 48.4278 32.4404 49.0449 32.4404 49.8195V53.6243H31.5722L31.4828 52.8838H31.4445C31.1551 53.1221 30.8359 53.3307 30.4869 53.5094C30.1464 53.6882 29.7804 53.7775 29.3889 53.7775ZM29.6953 52.9349C29.9932 52.9349 30.2741 52.8625 30.538 52.7178C30.8018 52.5731 31.0827 52.3688 31.3806 52.105V50.3813C30.3507 50.509 29.6272 50.7005 29.2101 50.9559C28.8016 51.2112 28.5973 51.5389 28.5973 51.939C28.5973 52.288 28.7037 52.5433 28.9165 52.705C29.1293 52.8582 29.3889 52.9349 29.6953 52.9349Z" fill="#808080"/>
<path d="M21.0514 56.2417V47.4192H21.9196L22.0089 48.1342H22.0473C22.3281 47.8959 22.6346 47.6916 22.9665 47.5213C23.307 47.3511 23.6602 47.266 24.0263 47.266C24.8264 47.266 25.435 47.5554 25.852 48.1342C26.2691 48.7045 26.4777 49.4705 26.4777 50.4324C26.4777 51.1303 26.35 51.7304 26.0946 52.2326C25.8478 52.7348 25.5201 53.1179 25.1115 53.3817C24.7115 53.6456 24.2731 53.7775 23.7964 53.7775C23.507 53.7775 23.2176 53.7137 22.9282 53.586C22.6473 53.4583 22.3622 53.2838 22.0728 53.0625L22.0983 54.1478V56.2417H21.0514ZM23.6177 52.8966C24.1284 52.8966 24.5497 52.6795 24.8817 52.2454C25.2222 51.8028 25.3924 51.1984 25.3924 50.4324C25.3924 49.7514 25.2647 49.2024 25.0094 48.7853C24.7625 48.3597 24.3454 48.147 23.7581 48.147C23.4943 48.147 23.2261 48.2193 22.9538 48.364C22.6899 48.5087 22.4047 48.7172 22.0983 48.9896V52.2454C22.3792 52.4837 22.6516 52.654 22.9155 52.7561C23.1793 52.8497 23.4134 52.8966 23.6177 52.8966Z" fill="#808080"/>
<path d="M6.55245 40.9528H7.64453V51.3275H6.55245V40.9528Z" fill="#808080"/>
<path d="M6.55241 50.2354H15.1215L16.3811 51.3275H6.55241V50.2354Z" fill="#808080"/>
</svg>
