<svg width="24" height="25" viewBox="0 0 24 25" fill="none" xmlns="http://www.w3.org/2000/svg">
<path fill-rule="evenodd" clip-rule="evenodd" d="M12 3.25C6.89137 3.25 2.75 7.39137 2.75 12.5C2.75 17.6086 6.89137 21.75 12 21.75C17.1086 21.75 21.25 17.6086 21.25 12.5C21.25 7.39137 17.1086 3.25 12 3.25ZM1.25 12.5C1.25 6.56294 6.06294 1.75 12 1.75C17.9371 1.75 22.75 6.56294 22.75 12.5C22.75 18.4371 17.9371 23.25 12 23.25C6.06294 23.25 1.25 18.4371 1.25 12.5Z" fill="#808080"/>
<path fill-rule="evenodd" clip-rule="evenodd" d="M10.3446 8.10313C10.0001 8.39541 9.75 8.84102 9.75 9.50001C9.75 9.91422 9.41421 10.25 9 10.25C8.58579 10.25 8.25 9.91422 8.25 9.50001C8.25 8.40898 8.68736 7.54209 9.37414 6.95937C10.0446 6.39048 10.9119 6.125 11.75 6.125C12.5881 6.125 13.4554 6.39049 14.1259 6.95938C14.8126 7.5421 15.25 8.40899 15.25 9.50001C15.25 10.2659 15.0538 10.8495 14.7334 11.3301C14.4642 11.734 14.1143 12.0462 13.839 12.2919C13.8089 12.3187 13.7798 12.3447 13.7517 12.37C13.4445 12.6464 13.213 12.8743 13.0433 13.1741C12.881 13.4609 12.75 13.8616 12.75 14.4999C12.75 14.9142 12.4142 15.2499 12 15.2499C11.5858 15.2499 11.25 14.9142 11.25 14.4999C11.25 13.6383 11.4315 12.9765 11.7379 12.4352C12.037 11.9069 12.4305 11.541 12.7483 11.255C12.7729 11.2328 12.797 11.2112 12.8205 11.1901C13.1207 10.9204 13.3276 10.7347 13.4853 10.498C13.6337 10.2755 13.75 9.98414 13.75 9.50001C13.75 8.84103 13.4999 8.39542 13.1554 8.10314C12.7946 7.79702 12.2869 7.625 11.75 7.625C11.2131 7.625 10.7054 7.79702 10.3446 8.10313Z" fill="#808080"/>
<path fill-rule="evenodd" clip-rule="evenodd" d="M12.5117 17.9414C12.8196 18.2185 12.8446 18.6927 12.5675 19.0006L12.5575 19.0117C12.2804 19.3196 11.8062 19.3446 11.4983 19.0675C11.1904 18.7904 11.1654 18.3162 11.4425 18.0083L11.4525 17.9972C11.7296 17.6893 12.2038 17.6643 12.5117 17.9414Z" fill="#808080"/>
</svg>
