<svg width="25" height="24" viewBox="0 0 25 24" fill="none" xmlns="http://www.w3.org/2000/svg">
<path fill-rule="evenodd" clip-rule="evenodd" d="M16.899 13.9056C16.6595 13.7864 15.4851 13.212 15.2664 13.132C15.0478 13.0528 14.8886 13.0136 14.7287 13.252C14.5695 13.4888 14.1121 14.0248 13.973 14.1832C13.8332 14.3424 13.6941 14.3616 13.4554 14.2432C13.2166 14.1232 12.4465 13.8728 11.5342 13.0632C10.8244 12.4328 10.3445 11.6544 10.2054 11.416C10.0663 11.1784 10.1901 11.0496 10.3099 10.9312C10.4176 10.8248 10.5486 10.6536 10.6684 10.5152C10.7882 10.376 10.8276 10.2768 10.9072 10.1176C10.9875 9.95925 10.9473 9.82085 10.8871 9.70165C10.8276 9.58245 10.3501 8.41205 10.1507 7.93605C9.957 7.47285 9.76006 7.53605 9.61376 7.52805C9.47389 7.52165 9.31472 7.52005 9.15556 7.52005C8.9964 7.52005 8.73756 7.57925 8.51891 7.81765C8.29946 8.05525 7.68291 8.63045 7.68291 9.80085C7.68291 10.9704 8.5382 12.1008 8.65798 12.26C8.77775 12.4184 10.342 14.82 12.7383 15.8496C13.3091 16.0944 13.7536 16.2408 14.1 16.3496C14.6724 16.5312 15.1933 16.5056 15.6048 16.444C16.063 16.376 17.018 15.8688 17.2174 15.3136C17.4159 14.7584 17.4159 14.2824 17.3564 14.1832C17.297 14.084 17.1378 14.0248 16.8982 13.9056H16.899ZM12.5406 19.828H12.5374C11.1141 19.8283 9.71695 19.4475 8.49238 18.7256L8.203 18.5544L5.19499 19.34L5.99804 16.4216L5.80913 16.1224C5.01343 14.8619 4.59234 13.4031 4.59452 11.9144C4.59612 7.55445 8.16039 4.00725 12.5438 4.00725C14.666 4.00725 16.6611 4.83125 18.1611 6.32565C18.9009 7.05891 19.4873 7.9309 19.8864 8.89116C20.2854 9.85143 20.4892 10.8809 20.4858 11.92C20.4842 16.28 16.9199 19.828 12.5406 19.828ZM19.3026 5.19045C18.4169 4.30319 17.3631 3.59968 16.2022 3.1207C15.0413 2.64171 13.7965 2.39676 12.5398 2.40006C7.27134 2.40006 2.98199 6.66805 2.98039 11.9136C2.97958 13.5904 3.41929 15.2272 4.2561 16.6696L2.9 21.6L7.96747 20.2768C9.36928 21.0369 10.9402 21.4352 12.5366 21.4352H12.5406C17.809 21.4352 22.0983 17.1672 22.1 11.9208C22.1038 10.6707 21.8586 9.43213 21.3784 8.27687C20.8983 7.12162 20.1927 6.07259 19.3026 5.19045Z" fill="#969696"/>
</svg>
